<svg xmlns="http://www.w3.org/2000/svg" width="100%" height="100%" viewBox="0 0 1200 850"><defs><linearGradient id="bgGrad" x1="0%" x2="0%" y1="0%" y2="100%"><stop offset="0%" stop-color="#0a0d12"/><stop offset="100%" stop-color="#05070a"/></linearGradient><linearGradient id="cyanGrad" x1="0%" x2="100%" y1="0%" y2="0%"><stop offset="0%" stop-color="#00e5a0" stop-opacity=".8"/><stop offset="100%" stop-color="#00e5a0" stop-opacity=".2"/></linearGradient><linearGradient id="blueGrad" x1="0%" x2="100%" y1="0%" y2="0%"><stop offset="0%" stop-color="#58a6ff" stop-opacity=".8"/><stop offset="100%" stop-color="#58a6ff" stop-opacity=".2"/></linearGradient><filter id="neonGreen" width="200%" height="200%" x="-50%" y="-50%"><feGaussianBlur result="blur" stdDeviation="3"/><feMerge><feMergeNode in="blur"/><feMergeNode in="SourceGraphic"/></feMerge></filter><filter id="neonBlue" width="200%" height="200%" x="-50%" y="-50%"><feGaussianBlur result="blur" stdDeviation="3"/><feMerge><feMergeNode in="blur"/><feMergeNode in="SourceGraphic"/></feMerge></filter><pattern id="scanlines" width="4" height="4" patternUnits="userSpaceOnUse"><rect width="4" height="1" fill="#fff" opacity=".03"/></pattern><clipPath id="cliReveal"><rect width="0" height="40" x="0" y="0"><animate fill="freeze" attributeName="width" begin="0.5s" dur="0.8s" from="0" to="800"/></rect></clipPath></defs><rect width="100%" height="100%" fill="url(#bgGrad)"/><rect width="100%" height="100%" fill="url(#scanlines)" pointer-events="none"/><g transform="translate(50, 40)"><rect width="1100" height="770" fill="#0d1117" stroke="#21262d" stroke-width="2" rx="16"/><rect width="1100" height="45" fill="#161b22" rx="16"/><rect width="1100" height="20" y="25" fill="#161b22"/><line x1="0" x2="1100" y1="45" y2="45" stroke="#30363d"/><g transform="translate(25, 22)"><circle cx="0" cy="0" r="7" fill="#ff5f57"/><circle cx="25" cy="0" r="7" fill="#febc2e"/><circle cx="50" cy="0" r="7" fill="#28c840"/></g><text x="550" y="28" fill="#8b949e" font-family="monospace" font-size="14" font-weight="bold" text-anchor="middle">prakhar@sys: ~/projects --featured</text><g><g clip-path="url(#cliReveal)" transform="translate(40, 80)"><text y="20" fill="#00e5a0" filter="url(#neonGreen)" font-family="monospace" font-size="20">$ <tspan fill="#e6edf3">fetch --all-projects --vivid</tspan></text></g><text y="50" fill="#8b949e" font-family="monospace" font-size="13" opacity="0" transform="translate(40, 80)">&gt; Initializing repository meta-data... OK <animate fill="freeze" attributeName="opacity" begin="1.3s" dur="0.2s" from="0" to="1"/></text><g><g opacity="0" transform="translate(40, 80) translate(0, 100)"><animate fill="freeze" attributeName="opacity" begin="1.5s" dur="0.5s" from="0" to="1"/><animateTransform fill="freeze" attributeName="transform" begin="1.5s" dur="0.5s" from="0,20" to="0,0" type="translate"/><rect width="1020" height="280" fill="#161b22" stroke="#21262d" rx="12"/><path fill="#00e5a0" d="M 0 10 Q 0 0 10 0 L 1010 0 Q 1020 0 1020 10 L 1020 40 L 0 40 Z" opacity=".05"/><line x1="0" x2="1020" y1="40" y2="40" stroke="#00e5a0" stroke-opacity=".2"/><text x="30" y="27" fill="#00e5a0" filter="url(#neonGreen)" font-family="monospace" font-size="18" font-weight="900">[ PROJECT: AI_VISUAL_CODE_REVIEW ]</text><text x="30" y="75" fill="#e6edf3" font-family="sans-serif" font-size="16" font-weight="bold">Security-hardened visual code review with GitHub-like diff viewer.</text><text x="30" y="100" fill="#8b949e" font-family="sans-serif" font-size="14">AI-optimized markdown exports and command injection protection.</text><g transform="translate(30, 130)"><rect width="120" height="45" fill="#0d1117" stroke="#21262d" rx="4"/><text x="10" y="18" fill="#8b949e" font-family="monospace" font-size="10">STABLE_VER</text><text x="10" y="36" fill="#00e5a0" font-family="monospace" font-size="16" font-weight="bold">v1.2.4</text><rect width="120" height="45" x="135" fill="#0d1117" stroke="#21262d" rx="4"/><text x="145" y="18" fill="#8b949e" font-family="monospace" font-size="10">MONTHLY_DL</text><text x="145" y="36" fill="#58a6ff" font-family="monospace" font-size="16" font-weight="bold">ACTIVE</text></g><g font-family="monospace" font-size="11" font-weight="bold" transform="translate(30, 200)"><rect width="80" height="24" fill="#393" stroke="#393" opacity=".1" rx="12"/><text x="40" y="16" fill="#393" text-anchor="middle">NODE.JS</text><rect width="80" height="24" x="90" fill="#e6edf3" stroke="#e6edf3" opacity=".1" rx="12"/><text x="130" y="16" fill="#e6edf3" text-anchor="middle">EXPRESS</text><rect width="80" height="24" x="180" fill="#2496ED" stroke="#2496ED" opacity=".1" rx="12"/><text x="220" y="16" fill="#2496ED" text-anchor="middle">DOCKER</text><rect width="80" height="24" x="270" fill="#C21325" stroke="#C21325" opacity=".1" rx="12"/><text x="310" y="16" fill="#C21325" text-anchor="middle">JEST</text></g><g transform="translate(750, 140)"><rect width="300" height="180" x="-100" y="-80" fill="#0d1117" stroke="#21262d" rx="8"/><rect width="150" height="8" x="-80" y="-60" fill="#ff5f57" opacity=".3"/><rect width="200" height="8" x="-80" y="-45" fill="#28c840" opacity=".3"/><rect width="120" height="8" x="-80" y="-30" fill="#28c840" opacity=".3"/><rect width="300" height="2" x="-100" y="-80" fill="#00e5a0" filter="url(#neonGreen)"><animate attributeName="y" dur="4s" repeatCount="indefinite" values="-80; 100; -80"/></rect><text x="50" y="85" fill="#00e5a0" font-family="monospace" font-size="10" text-anchor="middle">AI_THREAT_SCAN: CLEAR</text></g></g></g><g><g opacity="0" transform="translate(40, 80) translate(0, 400)"><animate fill="freeze" attributeName="opacity" begin="2s" dur="0.5s" from="0" to="1"/><animateTransform fill="freeze" attributeName="transform" begin="2s" dur="0.5s" from="0,20" to="0,0" type="translate"/><rect width="1020" height="280" fill="#161b22" stroke="#21262d" rx="12"/><path fill="#58a6ff" d="M 0 10 Q 0 0 10 0 L 1010 0 Q 1020 0 1020 10 L 1020 40 L 0 40 Z" opacity=".05"/><line x1="0" x2="1020" y1="40" y2="40" stroke="#58a6ff" stroke-opacity=".2"/><text x="30" y="27" fill="#58a6ff" filter="url(#neonBlue)" font-family="monospace" font-size="18" font-weight="900">[ PROJECT: MARKDOWN_VIEWER_PRO ]</text><text x="30" y="75" fill="#e6edf3" font-family="sans-serif" font-size="16" font-weight="bold">Production-ready editor with real-time preview and 12+ themes.</text><text x="30" y="100" fill="#8b949e" font-family="sans-serif" font-size="14">Supports Mermaid diagrams, PDF/HTML export, and multi-threaded rendering.</text><g transform="translate(30, 130)"><rect width="120" height="45" fill="#0d1117" stroke="#21262d" rx="4"/><text x="10" y="18" fill="#8b949e" font-family="monospace" font-size="10">TEST_SUITE</text><text x="10" y="36" fill="#00e5a0" font-family="monospace" font-size="16" font-weight="bold">155 PASSED</text><rect width="120" height="45" x="135" fill="#0d1117" stroke="#21262d" rx="4"/><text x="145" y="18" fill="#8b949e" font-family="monospace" font-size="10">LIVE_DEMO</text><text x="145" y="36" fill="#58a6ff" font-family="monospace" font-size="16" font-weight="bold">STABLE</text></g><g font-family="monospace" font-size="11" font-weight="bold" transform="translate(30, 200)"><rect width="80" height="24" fill="#646CFF" stroke="#646CFF" opacity=".1" rx="12"/><text x="40" y="16" fill="#646CFF" text-anchor="middle">VITE</text><rect width="100" height="24" x="90" fill="#F7DF1E" stroke="#F7DF1E" opacity=".1" rx="12"/><text x="140" y="16" fill="#F7DF1E" text-anchor="middle">JAVASCRIPT</text><rect width="80" height="24" x="200" fill="#6E9F18" stroke="#6E9F18" opacity=".1" rx="12"/><text x="240" y="16" fill="#6E9F18" text-anchor="middle">VITEST</text><rect width="100" height="24" x="290" fill="#e6edf3" stroke="#e6edf3" opacity=".1" rx="12"/><text x="340" y="16" fill="#e6edf3" text-anchor="middle">MERMAID.JS</text></g><g transform="translate(750, 140)"><rect width="300" height="180" x="-100" y="-80" fill="#0d1117" stroke="#21262d" rx="8"/><circle cx="50" cy="0" r="40" fill="none" stroke="#58a6ff" stroke-dasharray="5 5" stroke-width="1"><animateTransform attributeName="transform" dur="10s" from="0 50 0" repeatCount="indefinite" to="360 50 0" type="rotate"/></circle><circle cx="50" cy="0" r="10" fill="#58a6ff" filter="url(#neonBlue)"><animate attributeName="opacity" dur="2s" repeatCount="indefinite" values="0.4;1;0.4"/></circle><text x="50" y="85" fill="#58a6ff" font-family="monospace" font-size="10" text-anchor="middle">PREVIEW_ENGINE: ACTIVE</text></g></g></g><g fill="#484f58" font-family="monospace" font-size="13" transform="translate(40, 80) translate(0, 710)"><text>DEPLOYS_SUCCESSFUL: 2 // TEST_COVERAGE: 100% // ALL_SYSTEMS_OPERATIONAL</text><animate fill="freeze" attributeName="opacity" begin="3s" dur="2s" values="0;1;0.5;1"/></g></g></g></svg>