<svg xmlns="http://www.w3.org/2000/svg" width="100%" height="100%" viewBox="0 0 1200 700"><defs><linearGradient id="bgGrad" x1="0%" x2="0%" y1="0%" y2="100%"><stop offset="0%" stop-color="#0a0d12"/><stop offset="100%" stop-color="#05070a"/></linearGradient><radialGradient id="screenGlare" cx="50%" cy="10%" r="80%"><stop offset="0%" stop-color="#58a6ff" stop-opacity=".1"/><stop offset="100%" stop-color="#0d1117" stop-opacity="0"/></radialGradient><linearGradient id="termBorder" x1="0%" x2="100%" y1="0%" y2="100%"><stop offset="0%" stop-color="#00e5a0" stop-opacity=".5"/><stop offset="50%" stop-color="#21262d" stop-opacity="1"/><stop offset="100%" stop-color="#58a6ff" stop-opacity=".5"/></linearGradient><filter id="neonGreen" width="140%" height="140%" x="-20%" y="-20%"><feGaussianBlur result="blur" stdDeviation="4"/><feMerge><feMergeNode in="blur"/><feMergeNode in="SourceGraphic"/></feMerge></filter><filter id="neonBlue" width="140%" height="140%" x="-20%" y="-20%"><feGaussianBlur result="blur" stdDeviation="4"/><feMerge><feMergeNode in="blur"/><feMergeNode in="SourceGraphic"/></feMerge></filter><pattern id="scanlines" width="4" height="4" patternUnits="userSpaceOnUse"><rect width="4" height="1" fill="#fff" opacity=".02"/></pattern><clipPath id="type1"><rect width="0" height="40" x="30" y="80"><animate fill="freeze" attributeName="width" begin="0.5s" dur="0.4s" from="0" to="800"/></rect></clipPath><clipPath id="type2"><rect width="0" height="30" x="30" y="130"><animate fill="freeze" attributeName="width" begin="1.2s" dur="0.3s" from="0" to="800"/></rect></clipPath><clipPath id="type3"><rect width="0" height="30" x="30" y="160"><animate fill="freeze" attributeName="width" begin="1.6s" dur="0.4s" from="0" to="800"/></rect></clipPath><clipPath id="type4"><rect width="0" height="30" x="30" y="190"><animate fill="freeze" attributeName="width" begin="2.1s" dur="0.6s" from="0" to="800"/></rect></clipPath><clipPath id="type5"><rect width="0" height="30" x="30" y="220"><animate fill="freeze" attributeName="width" begin="2.8s" dur="0.4s" from="0" to="800"/></rect></clipPath><clipPath id="type6"><rect width="0" height="30" x="30" y="250"><animate fill="freeze" attributeName="width" begin="3.3s" dur="0.5s" from="0" to="800"/></rect></clipPath><clipPath id="type7"><rect width="0" height="30" x="30" y="280"><animate fill="freeze" attributeName="width" begin="3.9s" dur="0.6s" from="0" to="800"/></rect></clipPath><clipPath id="type8"><rect width="0" height="30" x="30" y="310"><animate fill="freeze" attributeName="width" begin="4.6s" dur="0.2s" from="0" to="800"/></rect></clipPath><clipPath id="typeBio1"><rect width="0" height="30" x="30" y="380"><animate fill="freeze" attributeName="width" begin="5.2s" dur="0.6s" from="0" to="800"/></rect></clipPath><clipPath id="typeBio2"><rect width="0" height="30" x="30" y="410"><animate fill="freeze" attributeName="width" begin="5.8s" dur="0.6s" from="0" to="800"/></rect></clipPath><clipPath id="typeBio3"><rect width="0" height="30" x="30" y="440"><animate fill="freeze" attributeName="width" begin="6.4s" dur="0.6s" from="0" to="800"/></rect></clipPath><clipPath id="typeBio4"><rect width="0" height="30" x="30" y="470"><animate fill="freeze" attributeName="width" begin="7.0s" dur="0.6s" from="0" to="800"/></rect></clipPath></defs><style>@keyframes pulseBounce{0%{transform:scale(1);opacity:.8}50%{transform:scale(1.1);opacity:1}}.font-mono{font-family:&apos;SF Mono&apos;,&apos;Fira Code&apos;,&apos;Cascadia Code&apos;,&apos;Consolas&apos;,monospace}.traffic{animation:pulseBounce 2s ease-in-out infinite}</style><rect width="100%" height="100%" fill="url(#bgGrad)"/><g transform="translate(60, 60)"><rect width="1080" height="580" fill="#000" filter="blur(15px)" opacity=".4" rx="12" transform="translate(10, 15)"/><rect width="1080" height="580" fill="#0d1117" stroke="url(#termBorder)" stroke-width="2" rx="12"/><rect width="1080" height="580" fill="url(#screenGlare)" rx="12"/><rect width="1080" height="580" fill="url(#scanlines)" rx="12"/><path fill="#161b22" d="M 0 12 Q 0 0 12 0 L 1068 0 Q 1080 0 1080 12 L 1080 40 L 0 40 Z"/><line x1="0" x2="1080" y1="40" y2="40" stroke="#30363d" stroke-width="1"/><g transform="translate(20, 20)"><circle cx="0" cy="0" r="6" fill="#ff5f57" class="traffic"/><circle style="animation-delay:.2s" cx="24" cy="0" r="6" fill="#febc2e" class="traffic"/><circle style="animation-delay:.4s" cx="48" cy="0" r="6" fill="#28c840" class="traffic"/></g><text x="540" y="25" fill="#8b949e" class="font-mono" font-size="13" font-weight="600" text-anchor="middle">prakhar@dev ~/about</text><g fill="#00e5a0" class="font-mono" font-size="11" transform="translate(950, 25)"><circle cx="0" cy="-4" r="3" fill="#00e5a0" filter="url(#neonGreen)"><animate attributeName="opacity" dur="1.5s" repeatCount="indefinite" values="0.2; 1; 0.2"/></circle><text x="12" y="0">ONLINE 12ms</text></g><g class="font-mono" font-size="17"><g clip-path="url(#type1)"><text x="40" y="100"><tspan fill="#00e5a0" filter="url(#neonGreen)">$</tspan> <tspan fill="#e6edf3"> whoami</tspan></text></g><g clip-path="url(#type2)"><text x="40" y="150"><tspan fill="#58a6ff" font-weight="bold">const</tspan> <tspan fill="#e6edf3"> prakhar = {</tspan></text></g><g clip-path="url(#type3)"><text x="40" y="180"><tspan fill="#6e7681">location: </tspan> <tspan fill="#00e5a0">&quot;Bengaluru, India&quot;</tspan> <tspan fill="#6e7681">,</tspan></text></g><g clip-path="url(#type4)"><text x="40" y="210"><tspan fill="#6e7681">experience: </tspan> <tspan fill="#00e5a0">&quot;3+ years — Amazon Payments &amp; Travel&quot;</tspan> <tspan fill="#6e7681">,</tspan></text></g><g clip-path="url(#type5)"><text x="40" y="240"><tspan fill="#6e7681">seeking: </tspan> <tspan fill="#00e5a0">&quot;SDE II / Senior SDE&quot;</tspan> <tspan fill="#6e7681">,</tspan></text></g><g clip-path="url(#type6)"><text x="40" y="270"><tspan fill="#6e7681">education: </tspan> <tspan fill="#00e5a0">&quot;MCA, MNNIT Prayagraj (9.25 GPA)&quot;</tspan> <tspan fill="#6e7681">,</tspan></text></g><g clip-path="url(#type7)"><text x="40" y="300"><tspan fill="#6e7681">passions: [</tspan> <tspan fill="#00e5a0">&quot;System Design&quot;</tspan> <tspan fill="#6e7681">, </tspan> <tspan fill="#00e5a0">&quot;Perf Eng&quot;</tspan> <tspan fill="#6e7681">, </tspan> <tspan fill="#00e5a0">&quot;Open Source&quot;</tspan> <tspan fill="#6e7681">],</tspan></text></g><g clip-path="url(#type8)"><text x="40" y="330" fill="#e6edf3">};</text></g></g><line x1="40" x2="680" y1="360" y2="360" stroke="#30363d" stroke-dasharray="640" stroke-dashoffset="640" stroke-width="2"><animate fill="freeze" attributeName="stroke-dashoffset" begin="4.8s" dur="0.8s" from="640" to="0"/></line><line x1="40" x2="680" y1="360" y2="360" stroke="#00e5a0" stroke-dasharray="640" stroke-dashoffset="640" stroke-width="2" opacity="0"><animate fill="freeze" attributeName="stroke-dashoffset" begin="4.8s" dur="0.8s" from="640" to="0"/><animate attributeName="opacity" begin="5.6s" dur="3s" repeatCount="indefinite" values="0; 0.6; 0"/></line><g fill="#7d8590" class="font-mono" font-size="14.5"><g clip-path="url(#typeBio1)"><text x="40" y="400">Results-driven engineer who shipped at Amazon scale — hotel booking</text></g><g clip-path="url(#typeBio2)"><text x="40" y="430">platforms, payment orchestration, event-driven architectures. Cut p90</text></g><g clip-path="url(#typeBio3)"><text x="40" y="460">latency <tspan fill="#00e5a0" filter="url(#neonGreen)">47%</tspan>, boosted conversions <tspan fill="#00e5a0" filter="url(#neonGreen)">33%</tspan>, built systems handling millions</text></g><g clip-path="url(#typeBio4)"><text x="40" y="490">of requests. Now building <tspan fill="#58a6ff" filter="url(#neonBlue)">open-source developer tools</tspan>.</text></g></g><g transform="translate(40, 530)"><text x="0" y="0" fill="#00e5a0" class="font-mono" filter="url(#neonGreen)" font-size="18">$</text><rect width="10" height="18" x="18" y="-14" fill="#00e5a0" opacity="0"><animate attributeName="opacity" begin="7.6s" dur="1s" repeatCount="indefinite" values="0; 1; 0"/></rect></g><g transform="translate(750, 80)"><line x1="0" x2="0" y1="0" y2="450" stroke="#21262d" stroke-width="2"/><g transform="translate(150, 100)"><circle cx="0" cy="0" r="70" fill="none" stroke="#30363d" stroke-width="1"/><circle cx="0" cy="0" r="40" fill="none" stroke="#30363d" stroke-dasharray="5 5" stroke-width="1"/><line x1="-80" x2="80" y1="0" y2="0" stroke="#30363d" stroke-width="1"/><line x1="0" x2="0" y1="-80" y2="80" stroke="#30363d" stroke-width="1"/><g><animateTransform attributeName="transform" dur="4s" from="0" repeatCount="indefinite" to="360" type="rotate"/><path fill="#00e5a0" d="M 0 0 L 0 -70 A 70 70 0 0 1 70 0 Z" opacity=".15"/><line x1="0" x2="0" y1="0" y2="-70" stroke="#00e5a0" stroke-width="2" filter="url(#neonGreen)"/></g><circle cx="30" cy="-30" r="3" fill="#00e5a0" filter="url(#neonGreen)"><animate attributeName="opacity" begin="0.5s" dur="4s" repeatCount="indefinite" values="0; 1; 0"/></circle><circle cx="-40" cy="20" r="3" fill="#58a6ff" filter="url(#neonBlue)"><animate attributeName="opacity" begin="2.5s" dur="4s" repeatCount="indefinite" values="0; 1; 0"/></circle></g><g transform="translate(150, 280)"><path fill="none" stroke="#30363d" stroke-width="2" d="M -60 -20 L 0 -50 L 60 -20 L 0 30 Z"/><path fill="none" stroke="#58a6ff" stroke-dasharray="100" stroke-dashoffset="100" stroke-width="2" d="M -60 -20 L 0 30 L 60 -20" opacity=".8"><animate attributeName="stroke-dashoffset" dur="3s" repeatCount="indefinite" values="100; -100"/></path><circle cx="-60" cy="-20" r="8" fill="#0d1117" stroke="#00e5a0" stroke-width="2"/><circle cx="60" cy="-20" r="8" fill="#0d1117" stroke="#00e5a0" stroke-width="2"/><circle cx="0" cy="-50" r="10" fill="#0d1117" stroke="#58a6ff" stroke-width="2"/><circle cx="0" cy="30" r="12" fill="#00e5a0" filter="url(#neonGreen)"><animate attributeName="r" dur="2s" repeatCount="indefinite" values="10; 14; 10"/></circle><text x="0" y="55" fill="#8b949e" class="font-mono" font-size="10" text-anchor="middle">DISTRIBUTED_CORE</text></g><g fill="#8b949e" class="font-mono" font-size="10" transform="translate(40, 400)"><text x="0" y="0">SYSTEM_SCALING</text><rect width="220" height="6" x="0" y="8" fill="#21262d" rx="3"/><rect width="0" height="6" x="0" y="8" fill="#00e5a0" filter="url(#neonGreen)" rx="3"><animate fill="freeze" attributeName="width" begin="2s" dur="2s" from="0" to="180"/></rect><text x="0" y="30">OPEN_SOURCE_TOOLS</text><rect width="220" height="6" x="0" y="38" fill="#21262d" rx="3"/><rect width="0" height="6" x="0" y="38" fill="#58a6ff" filter="url(#neonBlue)" rx="3"><animate fill="freeze" attributeName="width" begin="2.5s" dur="2s" from="0" to="150"/></rect></g></g></g></svg>