<svg xmlns="http://www.w3.org/2000/svg" width="100%" height="100%" viewBox="0 0 1200 700"><defs><linearGradient id="bgGrad" x1="0%" x2="0%" y1="0%" y2="100%"><stop offset="0%" stop-color="#0a0d12"/><stop offset="100%" stop-color="#05070a"/></linearGradient><radialGradient id="screenGlare" cx="50%" cy="10%" r="80%"><stop offset="0%" stop-color="#58a6ff" stop-opacity=".1"/><stop offset="100%" stop-color="#0d1117" stop-opacity="0"/></radialGradient><linearGradient id="termBorder" x1="0%" x2="100%" y1="0%" y2="100%"><stop offset="0%" stop-color="#00e5a0" stop-opacity=".5"/><stop offset="50%" stop-color="#21262d" stop-opacity="1"/><stop offset="100%" stop-color="#58a6ff" stop-opacity=".5"/></linearGradient><linearGradient id="gitLine" x1="0" x2="0" y1="0" y2="1"><stop offset="0%" stop-color="#00e5a0" stop-opacity="1"/><stop offset="50%" stop-color="#58a6ff" stop-opacity=".8"/><stop offset="100%" stop-color="#0d1117" stop-opacity="0"/></linearGradient><filter id="neonGreen" width="140%" height="140%" x="-20%" y="-20%"><feGaussianBlur result="blur" stdDeviation="4"/><feMerge><feMergeNode in="blur"/><feMergeNode in="SourceGraphic"/></feMerge></filter><filter id="neonBlue" width="140%" height="140%" x="-20%" y="-20%"><feGaussianBlur result="blur" stdDeviation="4"/><feMerge><feMergeNode in="blur"/><feMergeNode in="SourceGraphic"/></feMerge></filter><pattern id="scanlines" width="4" height="4" patternUnits="userSpaceOnUse"><rect width="4" height="1" fill="#fff" opacity=".02"/></pattern><clipPath id="cmd"><rect width="0" height="40" x="30" y="80"><animate fill="freeze" attributeName="width" begin="0.5s" dur="0.4s" from="0" to="800"/></rect></clipPath><clipPath id="c1"><rect width="0" height="80" x="30" y="120"><animate fill="freeze" attributeName="width" begin="1.2s" dur="0.4s" from="0" to="800"/></rect></clipPath><clipPath id="c2"><rect width="0" height="80" x="30" y="180"><animate fill="freeze" attributeName="width" begin="1.8s" dur="0.4s" from="0" to="800"/></rect></clipPath><clipPath id="c3"><rect width="0" height="80" x="30" y="240"><animate fill="freeze" attributeName="width" begin="2.4s" dur="0.4s" from="0" to="800"/></rect></clipPath><clipPath id="c4"><rect width="0" height="80" x="30" y="300"><animate fill="freeze" attributeName="width" begin="3.0s" dur="0.4s" from="0" to="800"/></rect></clipPath><clipPath id="c5"><rect width="0" height="80" x="30" y="360"><animate fill="freeze" attributeName="width" begin="3.6s" dur="0.4s" from="0" to="800"/></rect></clipPath><clipPath id="c6"><rect width="0" height="80" x="30" y="420"><animate fill="freeze" attributeName="width" begin="4.2s" dur="0.4s" from="0" to="800"/></rect></clipPath><clipPath id="c7"><rect width="0" height="80" x="30" y="480"><animate fill="freeze" attributeName="width" begin="4.8s" dur="0.4s" from="0" to="800"/></rect></clipPath></defs><style>@keyframes pulseBounce{0%{transform:scale(1);opacity:.8}50%{transform:scale(1.1);opacity:1}}.font-mono{font-family:&apos;SF Mono&apos;,&apos;Fira Code&apos;,&apos;Cascadia Code&apos;,&apos;Consolas&apos;,monospace}.traffic{animation:pulseBounce 2s ease-in-out infinite}</style><rect width="100%" height="100%" fill="url(#bgGrad)"/><g transform="translate(60, 60)"><rect width="1080" height="580" fill="#000" filter="blur(15px)" opacity=".4" rx="12" transform="translate(10, 15)"/><rect width="1080" height="580" fill="#0d1117" stroke="url(#termBorder)" stroke-width="2" rx="12"/><rect width="1080" height="580" fill="url(#screenGlare)" rx="12"/><rect width="1080" height="580" fill="url(#scanlines)" rx="12"/><path fill="#161b22" d="M 0 12 Q 0 0 12 0 L 1068 0 Q 1080 0 1080 12 L 1080 40 L 0 40 Z"/><line x1="0" x2="1080" y1="40" y2="40" stroke="#30363d" stroke-width="1"/><g transform="translate(20, 20)"><circle cx="0" cy="0" r="6" fill="#ff5f57" class="traffic"/><circle cx="24" cy="0" r="6" fill="#febc2e" class="traffic" style="animation-delay:.2s"/><circle cx="48" cy="0" r="6" fill="#28c840" class="traffic" style="animation-delay:.4s"/></g><text x="540" y="25" fill="#8b949e" class="font-mono" font-size="13" font-weight="600" text-anchor="middle">git log --career</text><g class="font-mono" font-size="16"><g clip-path="url(#cmd)"><text x="40" y="100"><tspan fill="#00e5a0" filter="url(#neonGreen)">$</tspan> <tspan fill="#e6edf3"> git log --oneline --graph career</tspan></text></g><line x1="60" x2="60" y1="140" y2="520" stroke="url(#gitLine)" stroke-dasharray="400" stroke-dashoffset="400" stroke-width="2"><animate fill="freeze" attributeName="stroke-dashoffset" begin="1.2s" dur="3.6s" from="400" linear="true" to="0"/></line><g clip-path="url(#c1)"><circle cx="60" cy="145" r="5" fill="#0d1117" stroke="#00e5a0" stroke-width="2" filter="url(#neonGreen)"><animate attributeName="r" dur="2s" repeatCount="indefinite" values="4; 6; 4"/></circle><circle cx="60" cy="145" r="12" fill="none" stroke="#00e5a0" opacity="0"><animate attributeName="r" dur="2s" repeatCount="indefinite" values="6; 20"/><animate attributeName="opacity" dur="2s" repeatCount="indefinite" values="0.8; 0"/></circle><text x="85" y="140"><tspan fill="#e6edf3" font-weight="bold">Sep 2025</tspan> <tspan fill="#00e5a0" filter="url(#neonGreen)" font-weight="bold"> (HEAD)</tspan></text><text x="85" y="160" fill="#8b949e" font-size="14">&gt; LEFT Amazon — Ready for the next chapter</text></g><g clip-path="url(#c2)"><circle cx="60" cy="205" r="4" fill="#0d1117" stroke="#58a6ff" stroke-width="2" filter="url(#neonBlue)"/><text x="85" y="200"><tspan fill="#e6edf3" font-weight="bold">2023</tspan> <tspan fill="#58a6ff"> (Amazon Pay — Trust-Buster)</tspan></text><text x="85" y="220" fill="#8b949e" font-size="14">&gt; Resolved 100+ bugs, cut on-call tickets by 75%</text></g><g clip-path="url(#c3)"><circle cx="60" cy="265" r="4" fill="#0d1117" stroke="#00e5a0" stroke-width="2"/><text x="85" y="260"><tspan fill="#e6edf3" font-weight="bold">2023</tspan> <tspan fill="#00e5a0"> (Hotel Booking Platform)</tspan></text><text x="85" y="280" fill="#8b949e" font-size="14">&gt; p90 latency 47%↓ · conversion 33%↑ · GZIP 95%↓</text></g><g clip-path="url(#c4)"><circle cx="60" cy="325" r="4" fill="#0d1117" stroke="#58a6ff" stroke-width="2"/><text x="85" y="320"><tspan fill="#e6edf3" font-weight="bold">2022</tspan> <tspan fill="#58a6ff"> (Event-Driven Architecture)</tspan></text><text x="85" y="340" fill="#8b949e" font-size="14">&gt; Webhook service (idempotency + audit) · 43 bps CPT↓</text></g><g clip-path="url(#c5)"><circle cx="60" cy="385" r="4" fill="#0d1117" stroke="#00e5a0" stroke-width="2"/><text x="85" y="380"><tspan fill="#e6edf3" font-weight="bold">Jul 2022</tspan> <tspan fill="#00e5a0"> (Joined Amazon)</tspan></text><text x="85" y="400" fill="#8b949e" font-size="14">&gt; SDE (Full-Time) — Auto-Insurance Milestoning</text></g><g clip-path="url(#c6)"><circle cx="60" cy="445" r="4" fill="#0d1117" stroke="#58a6ff" stroke-width="2"/><text x="85" y="440"><tspan fill="#e6edf3" font-weight="bold">2021-2022</tspan> <tspan fill="#58a6ff"> (Amazon SDE Intern x2)</tspan></text><text x="85" y="460" fill="#8b949e" font-size="14">&gt; GraphQL Migration · Renewal Flows</text></g><g clip-path="url(#c7)"><circle cx="60" cy="505" r="4" fill="#0d1117" stroke="#00e5a0" stroke-width="2"/><text x="85" y="500"><tspan fill="#e6edf3" font-weight="bold">2022</tspan> <tspan fill="#00e5a0"> (Education)</tspan></text><text x="85" y="520" fill="#8b949e" font-size="14">&gt; MCA — MNNIT Prayagraj (GPA: 9.25)</text></g></g><g transform="translate(40, 545)"><text x="0" y="0" fill="#00e5a0" class="font-mono" filter="url(#neonGreen)" font-size="18">$</text><rect width="10" height="18" x="18" y="-14" fill="#00e5a0" opacity="0"><animate attributeName="opacity" begin="5.4s" dur="1s" repeatCount="indefinite" values="0; 1; 0"/></rect></g><g transform="translate(750, 80)"><line x1="0" x2="0" y1="0" y2="450" stroke="#21262d" stroke-width="2"/><g transform="translate(40, 30)"><text x="0" y="0" fill="#e6edf3" class="font-mono" font-size="11" font-weight="bold">LATENCY_REDUCTION (p90)</text><text x="210" y="0" fill="#00e5a0" class="font-mono" filter="url(#neonGreen)" font-size="11">47% ↓</text><line x1="0" x2="250" y1="20" y2="20" stroke="#21262d" stroke-width="1"/><line x1="0" x2="250" y1="50" y2="50" stroke="#21262d" stroke-width="1"/><line x1="0" x2="250" y1="80" y2="80" stroke="#21262d" stroke-width="1"/><path fill="none" stroke="#58a6ff" stroke-dasharray="300" stroke-dashoffset="300" stroke-width="2" d="M 0 20 L 50 30 L 100 10 L 150 40 L 200 70 L 250 80" filter="url(#neonBlue)"><animate fill="freeze" attributeName="stroke-dashoffset" begin="2s" dur="2s" from="300" to="0"/></path><circle cx="250" cy="80" r="4" fill="#00e5a0" filter="url(#neonGreen)" opacity="0"><animate attributeName="opacity" begin="4s" dur="2s" repeatCount="indefinite" values="0; 1; 0"/></circle></g><g><text x="0" y="0" fill="#e6edf3" class="font-mono" font-size="11" font-weight="bold" transform="translate(40, 180)">API_TRAFFIC_LOAD (CPS)</text><g stroke-linecap="round" stroke-width="12" transform="translate(40, 180)"><line x1="10" x2="10" y1="80" y2="80" stroke="#30363d"><animate attributeName="y2" dur="1.5s" repeatCount="indefinite" values="80; 50; 80"/></line><line x1="40" x2="40" y1="80" y2="80" stroke="#58a6ff"><animate attributeName="y2" dur="2s" repeatCount="indefinite" values="80; 30; 80"/></line><line x1="70" x2="70" y1="80" y2="80" stroke="#30363d"><animate attributeName="y2" dur="1.2s" repeatCount="indefinite" values="80; 60; 80"/></line><line x1="100" x2="100" y1="80" y2="80" stroke="#00e5a0" filter="url(#neonGreen)"><animate attributeName="y2" dur="2.5s" repeatCount="indefinite" values="80; 10; 80"/></line><line x1="130" x2="130" y1="80" y2="80" stroke="#30363d"><animate attributeName="y2" dur="1.8s" repeatCount="indefinite" values="80; 40; 80"/></line></g></g><g class="font-mono" font-size="10" transform="translate(40, 330)"><text x="0" y="0" fill="#e6edf3" font-size="11" font-weight="bold">TRUST_BUSTER_METRICS</text><text x="0" y="30" fill="#8b949e">BUGS_RESOLVED</text><rect width="220" height="6" x="0" y="38" fill="#21262d" rx="3"/><rect width="0" height="6" x="0" y="38" fill="#58a6ff" filter="url(#neonBlue)" rx="3"><animate fill="freeze" attributeName="width" begin="2.5s" dur="2s" from="0" to="200"/></rect><text x="230" y="45" fill="#58a6ff">100+</text><text x="0" y="70" fill="#8b949e">ON_CALL_TICKETS</text><rect width="220" height="6" x="0" y="78" fill="#21262d" rx="3"/><rect width="0" height="6" x="0" y="78" fill="#00e5a0" filter="url(#neonGreen)" rx="3"><animate fill="freeze" attributeName="width" begin="3s" dur="2s" from="0" to="160"/></rect><text x="230" y="85" fill="#00e5a0">-75%</text></g></g></g></svg>