<svg xmlns="http://www.w3.org/2000/svg" width="100%" height="100%" viewBox="0 0 1200 800"><defs><linearGradient id="bgGrad" x1="0%" x2="0%" y1="0%" y2="100%"><stop offset="0%" stop-color="#0a0d12"/><stop offset="100%" stop-color="#05070a"/></linearGradient><linearGradient id="termBorder" x1="0%" x2="100%" y1="0%" y2="100%"><stop offset="0%" stop-color="#00e5a0" stop-opacity=".6"/><stop offset="50%" stop-color="#21262d" stop-opacity="1"/><stop offset="100%" stop-color="#58a6ff" stop-opacity=".6"/></linearGradient><filter id="neonGreen" width="200%" height="200%" x="-50%" y="-50%"><feGaussianBlur result="blur" stdDeviation="3"/><feMerge><feMergeNode in="blur"/><feMergeNode in="SourceGraphic"/></feMerge></filter><filter id="neonBlue" width="200%" height="200%" x="-50%" y="-50%"><feGaussianBlur result="blur" stdDeviation="3"/><feMerge><feMergeNode in="blur"/><feMergeNode in="SourceGraphic"/></feMerge></filter><pattern id="scanlines" width="4" height="4" patternUnits="userSpaceOnUse"><rect width="4" height="1" fill="#fff" opacity=".03"/></pattern><clipPath id="lsReveal"><rect width="0" height="40" x="0" y="0"><animate fill="freeze" attributeName="width" begin="0.5s" dur="0.6s" from="0" to="800"/></rect></clipPath></defs><rect width="100%" height="100%" fill="url(#bgGrad)"/><rect width="100%" height="100%" fill="url(#scanlines)" pointer-events="none"/><g transform="translate(50, 30)"><rect width="1100" height="740" fill="#0d1117" stroke="url(#termBorder)" stroke-width="2" rx="16"/><rect width="1100" height="45" fill="#161b22" rx="16"/><rect width="1100" height="20" y="25" fill="#161b22"/><line x1="0" x2="1100" y1="45" y2="45" stroke="#30363d"/><circle cx="25" cy="22" r="7" fill="#ff5f57"/><circle cx="50" cy="22" r="7" fill="#febc2e"/><circle cx="75" cy="22" r="7" fill="#28c840"/><text x="550" y="28" fill="#8b949e" font-family="monospace" font-size="14" font-weight="bold" text-anchor="middle">prakhar@sys: ~/tech-stack --full-registry</text><g><g clip-path="url(#lsReveal)" transform="translate(40, 80)"><text y="20" fill="#00e5a0" filter="url(#neonGreen)" font-family="monospace" font-size="20">$ <tspan fill="#e6edf3">ls --icons --recursive stack/</tspan></text></g><g><g opacity="0" transform="translate(40, 80) translate(0, 50)"><animate fill="freeze" attributeName="opacity" begin="1s" dur="0.4s" from="0" to="1"/><animateTransform fill="freeze" attributeName="transform" begin="1s" dur="0.4s" from="-20,0" to="0,0" type="translate"/><rect width="680" height="90" fill="#161b22" stroke="#21262d" rx="8"/><line x1="0" x2="0" y1="0" y2="90" stroke="#00e5a0" stroke-width="4"/><text x="80" y="35" fill="#00e5a0" filter="url(#neonGreen)" font-family="monospace" font-size="14" font-weight="900">[ LANGUAGES ]</text><text x="80" y="65" fill="#e6edf3" font-family="monospace" font-size="17">Java · TypeScript · JavaScript · Python · C++ · SQL</text><circle cx="40" cy="45" r="15" fill="none" stroke="#00e5a0" stroke-dasharray="2 4" stroke-width="1"/></g></g><g><g opacity="0" transform="translate(40, 80) translate(0, 160)"><animate fill="freeze" attributeName="opacity" begin="1.2s" dur="0.4s" from="0" to="1"/><animateTransform fill="freeze" attributeName="transform" begin="1.2s" dur="0.4s" from="-20,0" to="0,0" type="translate"/><rect width="680" height="90" fill="#161b22" stroke="#21262d" rx="8"/><line x1="0" x2="0" y1="0" y2="90" stroke="#58a6ff" stroke-width="4"/><text x="80" y="35" fill="#58a6ff" filter="url(#neonBlue)" font-family="monospace" font-size="14" font-weight="900">[ FRONTEND ]</text><text x="80" y="65" fill="#e6edf3" font-family="monospace" font-size="17">React · Redux · Tailwind · Vite · HTML5 · CSS3 · Next.js</text><g fill="none" stroke="#58a6ff" stroke-width="1" transform="translate(40, 45)"><ellipse rx="15" ry="6"/><ellipse rx="15" ry="6" transform="rotate(60)"/><ellipse rx="15" ry="6" transform="rotate(120)"/></g></g></g><g><g opacity="0" transform="translate(40, 80) translate(0, 270)"><animate fill="freeze" attributeName="opacity" begin="1.4s" dur="0.4s" from="0" to="1"/><animateTransform fill="freeze" attributeName="transform" begin="1.4s" dur="0.4s" from="-20,0" to="0,0" type="translate"/><rect width="680" height="90" fill="#161b22" stroke="#21262d" rx="8"/><line x1="0" x2="0" y1="0" y2="90" stroke="#00e5a0" stroke-width="4"/><text x="80" y="35" fill="#00e5a0" filter="url(#neonGreen)" font-family="monospace" font-size="14" font-weight="900">[ BACKEND ]</text><text x="80" y="65" fill="#e6edf3" font-family="monospace" font-size="17">Node.js · Express · Spring Boot · GraphQL · REST</text><path fill="none" stroke="#00e5a0" d="M 30 35 L 50 35 L 50 55 L 30 55 Z" transform="translate(0,0)"/></g></g><g><g opacity="0" transform="translate(40, 80) translate(0, 380)"><animate fill="freeze" attributeName="opacity" begin="1.6s" dur="0.4s" from="0" to="1"/><animateTransform fill="freeze" attributeName="transform" begin="1.6s" dur="0.4s" from="-20,0" to="0,0" type="translate"/><rect width="680" height="90" fill="#161b22" stroke="#21262d" rx="8"/><line x1="0" x2="0" y1="0" y2="90" stroke="#58a6ff" stroke-width="4"/><text x="80" y="35" fill="#58a6ff" filter="url(#neonBlue)" font-family="monospace" font-size="14" font-weight="900">[ AWS CLOUD ]</text><text x="80" y="65" fill="#e6edf3" font-family="monospace" font-size="16">Lambda · DynamoDB · Step Fn · ECS · CDK · API GW · AppSync · CloudWatch</text><path fill="none" stroke="#58a6ff" d="M 30 50 Q 30 40 40 40 Q 45 30 55 35 Q 60 45 50 55 L 35 55 Z"/></g></g><g><g opacity="0" transform="translate(40, 80) translate(0, 490)"><animate fill="freeze" attributeName="opacity" begin="1.8s" dur="0.4s" from="0" to="1"/><animateTransform fill="freeze" attributeName="transform" begin="1.8s" dur="0.4s" from="-20,0" to="0,0" type="translate"/><rect width="680" height="90" fill="#161b22" stroke="#21262d" rx="8"/><line x1="0" x2="0" y1="0" y2="90" stroke="#00e5a0" stroke-width="4"/><text x="80" y="35" fill="#00e5a0" filter="url(#neonGreen)" font-family="monospace" font-size="14" font-weight="900">[ TOOLS ]</text><text x="80" y="65" fill="#e6edf3" font-family="monospace" font-size="17">Git · Docker · Jest · CI/CD · TDD · Linux CLI</text><circle cx="40" cy="45" r="10" fill="none" stroke="#00e5a0" stroke-dasharray="4 2" stroke-width="2"/></g></g><g><text fill="#484f58" font-family="monospace" font-size="14" font-weight="bold" transform="translate(40, 80) translate(0, 610)">SYSTEM_REGISTRY: 5 CATEGORIES // 30 TECHNOLOGIES // OPTIMIZED FOR SCALE <animate fill="freeze" attributeName="opacity" begin="2.5s" dur="2s" values="0;1;0.5;1"/></text></g></g><g transform="translate(780, 100)"><line x1="0" x2="0" y1="20" y2="520" stroke="#21262d" stroke-dasharray="5 5" stroke-width="2"/><g transform="translate(140, 240)"><circle r="130" fill="none" stroke="#21262d" stroke-width="1"/><circle r="100" fill="none" stroke="#30363d" stroke-dasharray="10 10" stroke-width="1"/><g filter="url(#neonGreen)"><path fill="none" stroke="#00e5a0" stroke-width="2" d="M 0 -80 L 70 -40 L 70 40 L 0 80 L -70 40 L -70 -40 Z"><animateTransform attributeName="transform" dur="20s" from="0" repeatCount="indefinite" to="360" type="rotate"/></path></g><circle r="15" fill="#58a6ff" filter="url(#neonBlue)"><animate attributeName="r" dur="3s" repeatCount="indefinite" values="12; 18; 12"/></circle><text y="120" fill="#8b949e" font-family="monospace" font-size="12" font-weight="bold" text-anchor="middle">CORE_ENGINEERING_STATUS</text><text y="140" fill="#00e5a0" font-family="monospace" font-size="11" text-anchor="middle">OPTIMIZED_FOR_AMAZON_SCALE</text></g><g fill="#8b949e" font-family="monospace" font-size="11" transform="translate(20, 480)"><text y="0">SCALABILITY_READY</text><rect width="240" height="8" y="10" fill="#161b22" rx="4"/><rect width="0" height="8" y="10" fill="#00e5a0" filter="url(#neonGreen)" rx="4"><animate fill="freeze" attributeName="width" begin="2s" dur="2s" from="0" to="230"/></rect><text y="45">DISTRIBUTED_ARCHITECTURE</text><rect width="240" height="8" y="55" fill="#161b22" rx="4"/><rect width="0" height="8" y="55" fill="#58a6ff" filter="url(#neonBlue)" rx="4"><animate fill="freeze" attributeName="width" begin="2.5s" dur="2s" from="0" to="210"/></rect></g></g></g></svg>